<svg width="62" height="62" viewBox="0 0 62 62" fill="none" xmlns="http://www.w3.org/2000/svg">
<path d="M50.375 39.7636V14.9365C50.375 14.6019 50.023 14.3844 49.7238 14.534L40.1982 19.2967C40.0975 19.3471 39.9816 19.3579 39.8734 19.3269L22.1266 14.2564C22.0184 14.2255 21.9025 14.2363 21.8018 14.2866L11.8738 19.2506C11.7213 19.3269 11.625 19.4827 11.625 19.6531V44.4802C11.625 44.8148 11.977 45.0323 12.2762 44.8827L21.8018 40.12C21.9025 40.0696 22.0184 40.0588 22.1266 40.0898L39.8734 45.1603C39.9816 45.1912 40.0975 45.1804 40.1982 45.1301L50.1262 40.1661C50.2787 40.0898 50.375 39.934 50.375 39.7636Z" stroke="#8B8B8B" stroke-width="5"/>
<path d="M40.0417 45.2083V19.375" stroke="#8B8B8B" stroke-width="5"/>
<path d="M21.9583 40.0417V14.2083" stroke="#8B8B8B" stroke-width="5"/>
</svg>
